# xmcd CD database file
#
# Track frame offsets:
#	182
#	19022
#	40872
#	55597
#	68195
#	83407
#	100295
#	138277
#	176777
#
# Disc length: 2542 seconds
#
# Revision: 1
# Processed by: cddbd v1.5.1PL2 Copyright (c) Steve Scherf et al.
# Submitted via: CDex 1.51
#
DISCID=6b09ec09
DTITLE=Chuck Mangione - Children of Sanchez 2/2
DYEAR=1978
DGENRE=Jazz
TTITLE0=01_Hot Consuelo
TTITLE1=02_Death Scene
TTITLE2=03_Market Place
TTITLE3=04_Echano
TTITLE4=05_Sellavia
TTITLE5=06_Lullabye
TTITLE6=07_Medley
TTITLE7=08_B'Rye
TTITLE8=09_Children of Sanchez Finale
EXTD=YEAR: 1978
EXTT0=
EXTT1=
EXTT2=
EXTT3=
EXTT4=
EXTT5=
EXTT6=
EXTT7=
EXTT8=
PLAYORDER=
